<?xml version="1.0" standalone="no"?>
<!DOCTYPE svg PUBLIC "-//W3C//DTD SVG 20010904//EN"
 "http://www.w3.org/TR/2001/REC-SVG-20010904/DTD/svg10.dtd">
<svg version="1.0" xmlns="http://www.w3.org/2000/svg"
 width="512.000000pt" height="512.000000pt" viewBox="0 0 512.000000 512.000000"
 preserveAspectRatio="xMidYMid meet">

<g transform="translate(0.000000,512.000000) scale(0.100000,-0.100000)"
fill="#E1E2E4" stroke="none">
<path d="M1300 3890 c-696 -301 -1271 -552 -1279 -557 -11 -7 67 -44 270 -131
156 -66 729 -310 1273 -541 l989 -421 111 49 c61 26 526 231 1032 455 507 223
924 406 928 406 3 0 6 -367 6 -816 l0 -816 -43 -42 c-74 -72 -85 -174 -27
-256 l20 -28 -35 -223 c-19 -123 -37 -239 -40 -256 l-6 -33 216 0 215 0 -5 23
c-3 12 -21 126 -41 254 l-35 231 25 39 c41 61 44 121 12 188 -16 32 -39 62
-57 72 l-29 17 2 865 3 864 152 66 c84 36 153 69 153 72 0 4 -2478 1045 -2535
1065 -5 2 -579 -244 -1275 -546z"/>
<path d="M3265 2364 c-379 -167 -700 -304 -715 -303 -14 0 -333 132 -710 293
-377 161 -689 290 -693 286 -5 -4 -7 -257 -5 -561 l3 -554 28 -78 c60 -172
147 -265 339 -363 226 -115 461 -190 718 -230 159 -25 500 -25 660 -1 281 43
581 145 791 268 130 75 215 180 266 326 l28 78 3 573 c3 471 1 572 -10 571 -7
0 -323 -137 -703 -305z"/>
</g>
</svg>
