<?xml version="1.0" standalone="no"?>
<!DOCTYPE svg PUBLIC "-//W3C//DTD SVG 20010904//EN"
 "http://www.w3.org/TR/2001/REC-SVG-20010904/DTD/svg10.dtd">
<svg version="1.0" xmlns="http://www.w3.org/2000/svg"
 width="512.000000pt" height="512.000000pt" viewBox="0 0 512.000000 512.000000"
 preserveAspectRatio="xMidYMid meet">

<g transform="translate(0.000000,512.000000) scale(0.100000,-0.100000)"
fill="#E1E2E4" stroke="none">
<path d="M1995 5110 c-43 -17 -50 -38 -55 -168 l-5 -124 -45 -15 c-25 -8 -75
-28 -112 -45 l-68 -31 -84 81 c-130 125 -140 123 -339 -75 -82 -82 -155 -161
-164 -177 -26 -49 -11 -83 79 -173 l82 -82 -36 -78 c-20 -43 -41 -95 -48 -115
l-11 -36 -125 -4 c-124 -3 -126 -3 -150 -31 -23 -28 -24 -32 -24 -213 l0 -184
378 0 378 0 -4 103 c-6 158 29 271 121 393 109 143 291 234 472 234 267 0 504
-182 581 -445 18 -62 24 -209 11 -257 l-7 -28 386 0 386 0 -4 186 -3 186 -33
29 c-32 29 -34 29 -151 29 l-118 0 -12 43 c-7 23 -28 74 -46 113 l-33 72 55
53 c82 80 113 126 113 168 0 32 -13 49 -168 203 -165 166 -168 168 -211 168
-41 0 -48 -5 -128 -82 -80 -78 -85 -82 -111 -71 -15 6 -65 27 -112 47 l-85 35
-5 122 -6 121 -32 29 -32 29 -228 -1 c-125 0 -236 -4 -247 -9z"/>
<path d="M2160 4061 c-94 -31 -177 -107 -204 -188 -19 -55 -21 -140 -4 -194
l11 -39 273 0 272 0 13 38 c46 134 -26 299 -159 363 -48 24 -159 35 -202 20z"/>
<path d="M436 3252 c-232 -757 57 -1582 710 -2022 89 -61 256 -149 341 -181
l62 -24 3 -455 c3 -434 4 -457 23 -489 11 -19 33 -43 48 -55 28 -21 31 -21
925 -24 1001 -2 940 -7 989 67 23 34 23 34 23 442 l0 409 238 0 c265 0 286 4
329 69 23 34 23 37 23 377 l0 344 245 0 c267 0 293 4 333 55 31 40 42 88 30
132 -6 21 -143 236 -306 477 l-296 440 -17 132 c-19 141 -25 170 -66 307 l-26
87 -1792 0 -1792 0 -27 -88z"/>
</g>
</svg>
