<?xml version="1.0" standalone="no"?>
<!DOCTYPE svg PUBLIC "-//W3C//DTD SVG 20010904//EN"
 "http://www.w3.org/TR/2001/REC-SVG-20010904/DTD/svg10.dtd">
<svg version="1.0" xmlns="http://www.w3.org/2000/svg"
 width="512.000000pt" height="512.000000pt" viewBox="0 0 512.000000 512.000000"
 preserveAspectRatio="xMidYMid meet">

<g transform="translate(0.000000,512.000000) scale(0.100000,-0.100000)"
fill="#E1E2E4" stroke="none">
<path d="M1963 4625 c-170 -46 -304 -181 -348 -350 -9 -36 -15 -102 -15 -167
l0 -107 -447 -3 c-288 -2 -454 -7 -466 -13 -15 -10 20 -70 314 -533 220 -348
341 -529 362 -544 31 -22 40 -23 308 -26 l276 -3 28 58 c35 72 133 171 203
207 95 48 148 56 382 56 234 0 287 -8 382 -56 70 -36 168 -135 203 -207 l28
-58 277 3 277 3 32 25 c21 16 154 216 362 545 291 460 327 520 312 530 -12 6
-179 11 -465 13 l-448 3 0 98 c0 54 -5 122 -10 152 -34 176 -177 327 -355 374
-84 21 -1112 21 -1192 0z m1171 -339 c53 -40 66 -78 66 -191 l0 -95 -640 0
-640 0 0 94 c0 102 9 137 43 175 47 51 44 51 608 48 l526 -2 37 -29z"/>
<path d="M376 3741 c-58 -114 -56 -48 -56 -1501 0 -1152 2 -1344 15 -1393 47
-179 198 -323 374 -357 73 -14 3627 -14 3702 0 182 34 344 196 379 379 6 35
10 520 10 1380 0 1442 2 1378 -55 1491 -14 28 -27 50 -29 50 -2 0 -149 -231
-327 -512 -346 -547 -392 -609 -497 -662 -100 -50 -143 -56 -443 -56 l-277 0
-28 -57 c-34 -72 -132 -172 -202 -207 -95 -48 -148 -56 -382 -56 -236 0 -292
8 -384 58 -71 38 -167 135 -200 205 l-28 57 -277 0 c-306 0 -348 6 -454 62
-35 19 -80 56 -113 92 -30 34 -195 284 -370 561 -174 275 -320 504 -324 509
-5 5 -20 -15 -34 -43z"/>
<path d="M2335 2866 c-97 -43 -124 -171 -54 -251 45 -51 78 -57 301 -53 215 3
223 5 272 72 29 39 29 133 0 172 -50 67 -55 69 -282 71 -157 2 -214 0 -237
-11z"/>
</g>
</svg>
